<?xml version="1.0" encoding="utf-8"?>
<!-- Generator: Adobe Illustrator 19.0.1, SVG Export Plug-In . SVG Version: 6.00 Build 0)  -->
<svg version="1.1" id="Layer_1" xmlns="http://www.w3.org/2000/svg" xmlns:xlink="http://www.w3.org/1999/xlink" x="0px" y="0px"
	 viewBox="0 0 150 99.3333" style="enable-background:new 0 0 150 99.3333;" xml:space="preserve">
<style type="text/css">
	.st0{fill:#FC8C43;}
	.st1{fill:#FFFFFF;}
</style>
<g>
	<g>
		<path class="st0" d="M30.8497,59.4129c1.2696,0.8471,1.8787,1.6608,1.8281,2.4539c-0.0508,0.7427-0.7109,1.6019-1.9803,2.5555
			c-0.5586,0.4388-1.0665,0.6708-1.5742,0.7545c-0.6601,0.1088-1.2188-0.0464-1.7264-0.5028
			c-0.8635-0.7908-1.4218-1.3402-1.625-1.6505c-1.7773,0.7987-3.7575,1.3574-6.0428,1.6124
			c-9.3433,1.0107-15.0307-4.3672-15.0307-13.0987c-0.0001-8.8509,5.6365-14.0159,15.0307-15.2983
			c7.3122-1.0217,12.187,0.8595,14.6752,6.3847c0.5588,1.7935,0.8633,3.5437,0.8634,5.2114
			C35.2676,52.1475,33.7947,56.0499,30.8497,59.4129z M23.0805,52.0489c0.1017-1.81-0.051-3.4375-0.4063-4.8897
			c-0.5586-2.151-1.6249-3.157-3.0975-3.0636c-1.574,0.1055-2.4885,1.6032-2.6913,4.5206c-0.0509,0.536-0.0508,1.0187-0.0508,1.4531
			c0,2.9417,0.7618,5.0395,2.2343,6.2745c0.5584,0.4678,1.117,0.5471,1.7772,0.319C22.1666,56.158,22.928,54.6419,23.0805,52.0489z"
			/>
		<path class="st0" d="M66.1934,39.3515c-0.0508,3.2387-0.7107,6.3568-2.0311,9.3021c-1.0667,2.4695-2.7925,4.5692-5.1795,6.3795
			c-2.0821,1.5753-4.4687,2.717-7.109,3.3985c-4.6209,1.1922-8.2774,0.4561-10.867-2.0637
			c-2.3863-2.3223-3.6561-5.7886-3.7068-10.3931c0-0.606,0-1.2119,0-1.8178c0.0002-0.344,0-1.6703,0.0508-3.9909
			c0.0509-4.1883,1.4725-6.6182,4.2146-7.4468c0.8633-0.2639,2.336-0.731,4.5194-1.3585c3.3008-0.9275,5.2301-1.1837,5.789-0.5923
			c0.254,0.2768,0.4059,1.0799,0.3553,2.3882c0,1.0449-0.0503,2.8014-0.2032,5.1822c-0.1014,2.1677-0.1522,3.9228-0.1522,5.2164
			c0.0501,3.8152,1.0665,5.44,3.1482,4.8714c0.2708-0.0742,0.5417-0.1487,0.8125-0.2234c1.8788-0.718,2.7932-2.4303,2.793-5.1827
			c-0.0169-4.2822-0.034-8.5643-0.051-12.8461c0.0003-1.3514,1.2187-2.4116,3.707-3.1696c2.4374-0.7443,3.6558-0.4702,3.707,0.7743
			c0.0505,1.4448,0.1015,3.4437,0.2029,6.0823C66.2443,34.6014,66.2443,36.4655,66.1934,39.3515z"/>
		<path class="st0" d="M83.7631,43.8579c-0.051,2.0087-0.5583,3.5362-1.5235,4.5809c-0.7615,0.7819-2.2344,1.5144-4.367,2.2367
			c-0.4402,0.128-0.8802,0.2561-1.3203,0.3842c-2.7924,0.7625-4.8236,0.795-6.0934,0.0018c-0.508-0.3073-0.812-2.3911-0.9141-6.2501
			c0-2.2393,0-4.4787,0-6.718c0-2.5257-0.0505-4.9345-0.1523-7.2267c0.0507-2.2375,0.6092-3.9763,1.5741-5.2388
			c1.1677-1.4774,3.3007-2.7076,6.3475-3.6692c0.2539-0.0797,1.0666-0.3364,2.4373-0.7168
			c2.8439-0.8444,4.2653-0.0072,4.2148,2.5143C83.8986,30.458,83.8309,37.1585,83.7631,43.8579z"/>
		<path class="st0" d="M115.8049,30.5588c0.0003,0.3676-0.0511,0.7454-0.1017,1.1234c-2.3868,6.9583-7.0585,11.1024-14.0152,12.8557
			c-9.7496,2.4758-15.6401-1.0823-15.6398-10.8708c0.0003-9.3874,5.6872-16.8159,15.0305-19.4695
			c3.4533-0.9658,6.4997-0.9858,9.1405-0.0165c3.3006,1.1737,5.1286,3.5133,5.5348,6.9401c0.1522,1.123-0.3555,2.0169-1.5233,2.6939
			c-0.5584,0.3335-1.574,0.7155-3.1483,1.2403c-0.3555,0.1355-0.5586,0.1836-0.6093,0.1955
			c-1.0156,0.2403-1.6251-0.1328-1.7773-1.1395c-0.4569-2.6543-1.7772-3.5275-3.91-2.658c-1.574,0.6207-2.437,2.5171-2.6913,5.7495
			c-0.0509,0.896-0.1016,1.584-0.1015,1.9473c0.0004,4.7231,1.0152,6.8426,3.0975,6.3249c1.3205-0.3279,2.2342-1.0162,2.7928-2.037
			c0.3553-0.9198,0.6603-1.8273,1.0157-2.7995c0.3553-0.9719,1.0667-1.5601,2.082-1.7428c2.1833-0.4522,3.6562-0.4512,4.3163,0.0903
			C115.6524,29.3307,115.8054,29.8764,115.8049,30.5588z"/>
		<path class="st0" d="M128.5518,8.5828c2.6404-0.4117,3.9608,0.7601,3.9607,3.4177c0,0.6387-0.0001,1.5961-0.051,2.9331
			c-0.0505,1.3365-0.0505,2.2941-0.0505,2.9326c0.0001,0.745,0.1524,1.098,0.5078,1.0019c0.3553-0.043,0.7107-0.3507,1.0662-0.8708
			c1.6762-3.2276,2.8434-5.6369,3.5038-7.3037c0.8126-2.0007,1.9804-3.0195,3.4531-3.0742
			c1.0156-0.0386,2.0312-0.0657,3.0467-0.0806c1.2693,0.0985,1.9295,0.6722,1.9297,1.6393c0,1.5657-1.7773,5.1485-5.2811,10.9426
			c-0.2537,0.2847-0.1526,0.6521,0.254,1.1621c3.1487,4.0378,5.1284,7.8999,5.8905,11.4964
			c0.1011,0.4835,0.1527,0.9677,0.1523,1.4522c-0.0001,1.7789-0.9142,2.7408-2.742,2.9446
			c-1.1682,0.1361-2.4374,0.2909-3.8086,0.4173c-2.4882,0.2419-4.0626-0.525-4.7225-2.3349
			c-0.254-0.5642-0.6599-1.5941-1.2185-3.0841c-0.9652-1.7682-1.6252-2.5966-2.0313-2.5501
			c-0.2537,0.0293-0.4062,0.5794-0.4063,1.6961c0.0509,2.6539-0.2034,4.3842-0.7617,5.2468c-0.6605,1.0358-2.1834,1.795-4.57,2.4011
			c-0.6263,0.0899-1.2526,0.1832-1.8788,0.2799c-1.9803,0.3061-3.504,0.413-4.621,0.2441
			c-0.4569-0.1286-0.8126-0.2739-1.0157-0.4468c-0.7617-0.6493-1.1677-4.9346-1.1678-12.9798
			c-0.0002-8.6753,0.4063-13.5476,1.2187-14.5068c0.66-0.9728,3.0468-1.9125,7.0583-2.6022
			C127.0283,8.827,127.79,8.7023,128.5518,8.5828z"/>
	</g>
	<path class="st0" d="M47.3281,91.5527c-2.2854,1.4317-6.1446,2.7052-11.5778,3.6367c-0.9648,0.1635-2.6406,0.3482-4.9763,0.4957
		c-3.1485,0.2144-5.0273-0.0629-5.5858-0.6264c-0.7617-0.641-1.1677-4.6274-1.1678-11.9587
		c0.0003-7.3319,0.4062-11.4142,1.1678-12.298c0.5586-0.6127,1.6251-1.1505,3.2499-1.6502
		c2.4882-0.7337,4.9255-1.3655,7.3122-1.8302c6.9058-1.3596,11.527-1.4865,13.8628,0.0906
		c1.4727,0.9802,2.1836,2.6926,2.1835,5.1809c0.0001,2.2379-1.0157,4.2819-3.0468,6.0942c2.3867,1.0318,3.5545,2.7381,3.5546,5.1288
		C52.304,86.8501,50.6284,89.4961,47.3281,91.5527z M38.9494,73.8101c-0.711,0.4883-1.0664,1.1963-1.0664,2.1305
		c0,0.8845,0.2539,1.4744,0.7617,1.7675c0.3553,0.1752,1.2186,0.1535,2.6913-0.1531c1.4729-0.3072,2.5388-0.9361,3.199-1.8239
		c0.2032-0.3416,0.3052-0.7599,0.3048-1.2545c0.0002-1.4859-1.1678-1.9567-3.453-1.4684
		C40.2187,73.2565,39.4063,73.5206,38.9494,73.8101z M39.4065,87.8923c0.4061,0.0693,1.3203-0.0072,2.7421-0.2953
		c1.4727-0.299,2.4373-0.9498,2.9452-1.9986c0.1523-0.3295,0.254-0.7473,0.2539-1.242c0.0001-1.4368-1.1173-1.9775-3.3008-1.6228
		c-1.2696,0.2131-2.1834,0.4918-2.7421,0.8472c-0.7614,0.493-1.1173,1.3465-1.1171,2.4775
		C38.1878,87.0905,38.5941,87.7033,39.4065,87.8923z"/>
	<path class="st0" d="M68.7067,82.7261c-0.051,1.9821-0.5584,3.478-1.5234,4.4833c-0.7621,0.7511-2.2343,1.4334-4.3671,2.0721
		c-0.4402,0.111-0.8803,0.2216-1.3203,0.3318c-2.793,0.6485-4.8242,0.5867-6.0934-0.2567
		c-0.5078-0.3277-0.8125-2.3997-0.9142-6.2146c-0.0001-2.2107-0.0001-4.4214,0-6.6322c0.0002-2.4932-0.0509-4.8741-0.1523-7.1419
		c0.0507-2.2066,0.6092-3.895,1.5743-5.0966c1.1676-1.4046,3.3009-2.5215,6.3473-3.362c0.2544-0.0702,1.066-0.2938,2.4374-0.626
		c2.8438-0.7458,4.2654,0.11,4.2148,2.5999C68.8422,69.4986,68.7744,76.1129,68.7067,82.7261z"/>
	<path class="st0" d="M75.8667,64.6276c-0.7447,0.2592-1.4896,0.5184-2.2345,0.7773c-1.7773,0.6483-2.6407-0.3767-2.6404-3.0563
		c0.0003-2.0728,1.4722-3.6028,4.4178-4.6997c4.6211-1.6754,9.4955-3.2302,14.5737-4.523c3.5548-0.9257,6.1951-1.258,7.8708-1.017
		c0.965,0.1134,1.4724,0.8145,1.4725,2.0055c-0.0002,2.2274-0.5074,3.7512-1.574,4.5888c-0.4061,0.3097-1.0662,0.5797-2.0313,0.8277
		c-0.5584,0.143-1.7267,0.3432-2.1327,0.4499c-1.4218,0.3213-2.1328,1.2835-2.1328,2.7748
		c-0.0338,4.6737-0.0677,9.347-0.1015,14.0198c0.0002,2.0583-0.5079,3.5737-1.5742,4.5611c-0.8123,0.7696-2.2853,1.4484-4.367,2.085
		c-0.4232,0.1087-0.8463,0.2175-1.2695,0.3267c-2.8945,0.696-4.9257,0.6676-6.0935-0.1955c-0.4063-0.3-0.6601-1.3008-0.7617-2.9516
		c-0.1522-2.0445-0.051-7.0006,0.2538-14.9167C77.5933,64.6019,77.0345,64.2498,75.8667,64.6276z"/>
	<g>
		<path class="st0" d="M131.9405,67.6404c-2.2701-2.6764-0.5801,1.2291-10.7364,3.4113c-4.9969,1.1398-7.9898-2.702-8.5015-7.2463
			c-0.1005-1.0927,17.0836-5.4018,17.6421-5.4303c1.1681-0.5471,1.6976-2.0256,1.5448-3.1816
			c-0.4061-3.5197-2.2345-6.1162-5.5348-7.6739c-2.6407-1.2754-5.6876-1.5758-9.1403-0.9245
			c-9.3431,1.8106-15.0307,9.0076-15.0307,18.5112c0.0001,9.9348,5.915,13.1545,15.64,12.2914
			C126.5979,76.6314,133.9842,70.1523,131.9405,67.6404z M118.2418,50.9858c1.6361-0.2955,2.9623,1.0229,2.9623,2.9162
			c0.0001,1.894-1.3261,3.6371-2.9623,3.9216c-1.6358,0.284-2.9624-0.9906-2.9622-2.8737
			C115.2796,53.0677,116.6058,51.2807,118.2418,50.9858z"/>
	</g>
	<path class="st0" d="M137.944,61.1118c-0.0001-1.1511-0.8865-2.0379-1.9799-1.9632c-1.0934,0.0742-1.9798,1.0778-1.9799,2.2245
		c0.0001,1.1469,0.8866,2.0064,1.9799,1.9363C137.0577,63.2391,137.9441,62.2629,137.944,61.1118z"/>
	<path class="st0" d="M128.9676,63.3855c-0.0002-0.8468-0.6567-1.4607-1.4671-1.3631c-0.8102,0.0974-1.4665,0.8675-1.467,1.7116
		c0.0004,0.8444,0.6566,1.4455,1.467,1.3504C128.3109,64.9892,128.9673,64.2322,128.9676,63.3855z"/>
	<path class="st0" d="M138.7529,53.4662c-0.0002-0.8346-0.642-1.4774-1.4346-1.4263c-0.7922,0.0509-1.435,0.7741-1.4347,1.6063
		c0.0001,0.8326,0.6424,1.4602,1.4347,1.4119C138.1105,55.0093,138.7528,54.3008,138.7529,53.4662z"/>
</g>
<g>
	<g>
		<path class="st1" d="M28.5422,55.9516c1.2696,0.8471,1.8787,1.6608,1.8281,2.4539c-0.0508,0.7427-0.7109,1.6019-1.9803,2.5555
			c-0.5586,0.4388-1.0665,0.6708-1.5742,0.7545c-0.6601,0.1088-1.2188-0.0464-1.7264-0.5028
			c-0.8635-0.7908-1.4218-1.3402-1.625-1.6505c-1.7774,0.7987-3.7575,1.3574-6.0428,1.6124
			C8.0782,62.1854,2.3908,56.8074,2.3909,48.0759C2.3908,39.2251,8.0274,34.06,17.4215,32.7776
			c7.3122-1.0217,12.187,0.8595,14.6752,6.3847c0.5588,1.7935,0.8633,3.5437,0.8634,5.2114
			C32.9601,48.6862,31.4872,52.5886,28.5422,55.9516z M20.773,48.5876c0.1017-1.81-0.051-3.4375-0.4063-4.8897
			c-0.5586-2.151-1.6249-3.157-3.0975-3.0636c-1.574,0.1055-2.4885,1.6032-2.6913,4.5206c-0.0509,0.536-0.0508,1.0187-0.0508,1.4531
			c0,2.9417,0.7618,5.0395,2.2343,6.2745c0.5584,0.4678,1.117,0.5471,1.7772,0.319C19.8591,52.6968,20.6205,51.1807,20.773,48.5876z
			"/>
		<path class="st1" d="M63.8859,35.8902c-0.0508,3.2387-0.7107,6.3568-2.0311,9.3021c-1.0667,2.4695-2.7925,4.5692-5.1795,6.3795
			c-2.0821,1.5753-4.4687,2.717-7.109,3.3985c-4.6209,1.1922-8.2774,0.4561-10.867-2.0637
			c-2.3863-2.3223-3.6561-5.7886-3.7068-10.3931c0-0.606,0-1.2119,0-1.8178c0.0002-0.344,0-1.6703,0.0508-3.9909
			c0.0509-4.1883,1.4725-6.6182,4.2146-7.4468c0.8633-0.2639,2.336-0.731,4.5194-1.3585c3.3008-0.9275,5.2301-1.1837,5.789-0.5923
			c0.254,0.2768,0.4059,1.0799,0.3553,2.3882c0,1.0449-0.0503,2.8014-0.2032,5.1822c-0.1014,2.1677-0.1522,3.9228-0.1522,5.2164
			c0.0501,3.8152,1.0665,5.44,3.1482,4.8714c0.2708-0.0742,0.5417-0.1487,0.8125-0.2234c1.8788-0.718,2.7932-2.4303,2.793-5.1827
			c-0.0169-4.2822-0.034-8.5643-0.051-12.8461c0.0003-1.3514,1.2187-2.4116,3.707-3.1696c2.4374-0.7443,3.6558-0.4702,3.707,0.7743
			c0.0505,1.4448,0.1015,3.4437,0.2029,6.0823C63.9368,31.1402,63.9368,33.0042,63.8859,35.8902z"/>
		<path class="st1" d="M81.4556,40.3967c-0.051,2.0087-0.5583,3.5362-1.5235,4.5809c-0.7615,0.7819-2.2344,1.5144-4.367,2.2367
			c-0.4402,0.128-0.8802,0.2561-1.3203,0.3842c-2.7924,0.7625-4.8236,0.795-6.0934,0.0018c-0.508-0.3073-0.812-2.3911-0.9142-6.2501
			c0-2.2393,0-4.4787,0-6.718c0.0001-2.5257-0.0505-4.9345-0.1523-7.2267c0.0507-2.2375,0.6092-3.9763,1.5741-5.2388
			c1.1677-1.4774,3.3007-2.7076,6.3475-3.6692c0.2539-0.0797,1.0666-0.3364,2.4373-0.7168
			c2.8439-0.8444,4.2653-0.0072,4.2148,2.5143C81.591,26.9967,81.5234,33.6972,81.4556,40.3967z"/>
		<path class="st1" d="M113.4974,27.0976c0.0003,0.3676-0.0511,0.7454-0.1017,1.1234c-2.3868,6.9583-7.0585,11.1024-14.0151,12.8557
			c-9.7496,2.4758-15.6401-1.0823-15.6398-10.8708c0.0002-9.3874,5.6872-16.8159,15.0305-19.4695
			c3.4533-0.9658,6.4997-0.9858,9.1405-0.0165c3.3006,1.1737,5.1286,3.5133,5.5348,6.9401c0.1522,1.123-0.3555,2.0169-1.5233,2.6939
			c-0.5584,0.3335-1.574,0.7155-3.1483,1.2403c-0.3555,0.1355-0.5586,0.1836-0.6093,0.1955
			c-1.0156,0.2403-1.6251-0.1328-1.7773-1.1395c-0.4568-2.6543-1.7772-3.5275-3.91-2.658c-1.574,0.6207-2.437,2.5171-2.6913,5.7495
			c-0.0509,0.896-0.1016,1.584-0.1015,1.9473c0.0005,4.7231,1.0152,6.8426,3.0975,6.3249c1.3205-0.3279,2.2342-1.0162,2.7928-2.037
			c0.3553-0.9198,0.6603-1.8273,1.0157-2.7995c0.3553-0.9719,1.0667-1.5601,2.082-1.7428c2.1833-0.4522,3.6562-0.4512,4.3163,0.0903
			C113.3449,25.8695,113.4979,26.4152,113.4974,27.0976z"/>
		<path class="st1" d="M126.2443,5.1215c2.6405-0.4117,3.9608,0.7601,3.9607,3.4177c0,0.6387,0,1.5961-0.051,2.9331
			c-0.0505,1.3365-0.0505,2.2941-0.0505,2.9326c0,0.745,0.1524,1.098,0.5078,1.0019c0.3553-0.043,0.7107-0.3507,1.0662-0.8708
			c1.6762-3.2276,2.8434-5.6369,3.5038-7.3037c0.8126-2.0007,1.9804-3.0195,3.4531-3.0742
			c1.0156-0.0386,2.0312-0.0657,3.0467-0.0806c1.2693,0.0985,1.9295,0.6722,1.9297,1.6393
			c0.0001,1.5657-1.7773,5.1485-5.2811,10.9426c-0.2537,0.2847-0.1526,0.6521,0.254,1.1621
			c3.1487,4.0378,5.1284,7.8999,5.8905,11.4964c0.1011,0.4835,0.1527,0.9677,0.1523,1.4522
			c-0.0001,1.7789-0.9142,2.7408-2.742,2.9446c-1.1682,0.1361-2.4374,0.2909-3.8086,0.4173
			c-2.4882,0.2419-4.0626-0.525-4.7225-2.3349c-0.254-0.5642-0.6599-1.5941-1.2185-3.0841
			c-0.9652-1.7682-1.6252-2.5966-2.0313-2.5501c-0.2537,0.0293-0.4062,0.5794-0.4063,1.6961
			c0.0509,2.6539-0.2034,4.3842-0.7617,5.2468c-0.6605,1.0358-2.1834,1.795-4.57,2.4011c-0.6263,0.0899-1.2526,0.1832-1.8788,0.2799
			c-1.9803,0.3061-3.504,0.413-4.621,0.2441c-0.4568-0.1286-0.8126-0.2739-1.0157-0.4468
			c-0.7617-0.6493-1.1677-4.9346-1.1678-12.9798c-0.0002-8.6753,0.4063-13.5476,1.2187-14.5068
			c0.66-0.9728,3.0468-1.9125,7.0583-2.6022C124.7208,5.3657,125.4825,5.241,126.2443,5.1215z"/>
	</g>
	<path class="st1" d="M45.0206,88.0914c-2.2854,1.4317-6.1446,2.7052-11.5778,3.6367c-0.9648,0.1635-2.6405,0.3482-4.9763,0.4957
		c-3.1485,0.2144-5.0273-0.0629-5.5858-0.6264c-0.7617-0.641-1.1677-4.6274-1.1678-11.9587
		c0.0003-7.3319,0.4062-11.4142,1.1678-12.298c0.5586-0.6127,1.6251-1.1505,3.2499-1.6502
		c2.4882-0.7337,4.9255-1.3655,7.3122-1.8302c6.9058-1.3596,11.527-1.4865,13.8628,0.0906
		c1.4727,0.9802,2.1835,2.6926,2.1835,5.1809c0.0001,2.2379-1.0157,4.2819-3.0468,6.0942c2.3867,1.0318,3.5545,2.7381,3.5546,5.1288
		C49.9965,83.3888,48.3209,86.0349,45.0206,88.0914z M36.6419,70.3488c-0.711,0.4883-1.0664,1.1963-1.0664,2.1305
		c0,0.8845,0.2539,1.4744,0.7617,1.7675c0.3553,0.1752,1.2186,0.1535,2.6913-0.1531c1.4729-0.3072,2.5388-0.9361,3.199-1.8239
		c0.2032-0.3416,0.3052-0.7599,0.3048-1.2545c0.0001-1.4859-1.1678-1.9567-3.453-1.4684
		C37.9112,69.7952,37.0988,70.0593,36.6419,70.3488z M37.099,84.4311c0.4061,0.0693,1.3203-0.0072,2.7421-0.2953
		c1.4727-0.299,2.4373-0.9498,2.9452-1.9986c0.1523-0.3295,0.254-0.7473,0.2539-1.242c0.0001-1.4368-1.1173-1.9775-3.3008-1.6228
		c-1.2695,0.2131-2.1833,0.4918-2.7421,0.8472c-0.7614,0.493-1.1173,1.3465-1.1171,2.4775
		C35.8803,83.6292,36.2866,84.2421,37.099,84.4311z"/>
	<path class="st1" d="M66.3992,79.2649c-0.051,1.9821-0.5584,3.478-1.5234,4.4833c-0.7621,0.7511-2.2343,1.4334-4.3671,2.0721
		c-0.4402,0.111-0.8803,0.2216-1.3203,0.3318c-2.793,0.6485-4.8242,0.5867-6.0934-0.2567
		c-0.5078-0.3277-0.8125-2.3997-0.9142-6.2146c0-2.2107,0-4.4214,0-6.6322c0.0002-2.4932-0.0509-4.8741-0.1523-7.1419
		c0.0507-2.2066,0.6092-3.895,1.5743-5.0966c1.1676-1.4046,3.3009-2.5215,6.3473-3.362c0.2544-0.0702,1.066-0.2938,2.4374-0.626
		c2.8438-0.7458,4.2654,0.11,4.2148,2.5999C66.5347,66.0373,66.4669,72.6517,66.3992,79.2649z"/>
	<path class="st1" d="M73.5592,61.1663c-0.7447,0.2592-1.4896,0.5184-2.2345,0.7773c-1.7773,0.6483-2.6407-0.3767-2.6404-3.0563
		c0.0004-2.0728,1.4722-3.6028,4.4178-4.6997c4.6211-1.6754,9.4955-3.2302,14.5737-4.523c3.5549-0.9257,6.1951-1.258,7.8708-1.017
		c0.965,0.1134,1.4724,0.8145,1.4725,2.0055c-0.0003,2.2274-0.5074,3.7512-1.574,4.5888c-0.4061,0.3097-1.0662,0.5797-2.0313,0.8277
		c-0.5584,0.143-1.7267,0.3432-2.1327,0.4499c-1.4218,0.3213-2.1328,1.2835-2.1328,2.7748
		c-0.0338,4.6737-0.0677,9.347-0.1015,14.0198c0.0002,2.0583-0.5079,3.5737-1.5742,4.5611c-0.8123,0.7696-2.2853,1.4484-4.367,2.085
		c-0.4232,0.1087-0.8463,0.2175-1.2695,0.3267c-2.8945,0.696-4.9257,0.6676-6.0935-0.1955c-0.4063-0.3-0.6601-1.3008-0.7617-2.9516
		c-0.1522-2.0445-0.051-7.0006,0.2538-14.9167C75.2858,61.1407,74.727,60.7886,73.5592,61.1663z"/>
	<g>
		<path class="st1" d="M129.633,64.1791c-2.27-2.6764-0.5801,1.2291-10.7364,3.4113c-4.9969,1.1398-7.9898-2.702-8.5015-7.2463
			c-0.1005-1.0927,17.0836-5.4018,17.6421-5.4303c1.1681-0.5471,1.6976-2.0256,1.5448-3.1816
			c-0.4061-3.5197-2.2345-6.1162-5.5348-7.6739c-2.6408-1.2754-5.6876-1.5758-9.1403-0.9245
			c-9.3431,1.8106-15.0307,9.0076-15.0307,18.5112c0.0001,9.9348,5.915,13.1545,15.64,12.2914
			C124.2904,73.1702,131.6767,66.691,129.633,64.1791z M115.9343,47.5246c1.6361-0.2955,2.9623,1.0229,2.9623,2.9162
			c0,1.894-1.3261,3.6371-2.9623,3.9216c-1.6358,0.284-2.9624-0.9906-2.9622-2.8737
			C112.9721,49.6064,114.2983,47.8195,115.9343,47.5246z"/>
	</g>
	<path class="st1" d="M135.6365,57.6506c-0.0002-1.1511-0.8865-2.0379-1.9799-1.9632c-1.0934,0.0742-1.9798,1.0778-1.9799,2.2245
		c0.0001,1.1469,0.8866,2.0064,1.9799,1.9363C134.7502,59.7778,135.6366,58.8017,135.6365,57.6506z"/>
	<path class="st1" d="M126.6601,59.9243c-0.0002-0.8468-0.6567-1.4607-1.4671-1.3631c-0.8102,0.0974-1.4664,0.8675-1.467,1.7116
		c0.0004,0.8444,0.6566,1.4455,1.467,1.3504C126.0034,61.528,126.6598,60.7709,126.6601,59.9243z"/>
	<path class="st1" d="M136.4454,50.0049c-0.0002-0.8346-0.642-1.4774-1.4346-1.4263c-0.7922,0.0509-1.435,0.7741-1.4346,1.6063
		c0.0001,0.8326,0.6424,1.4602,1.4346,1.4119C135.803,51.548,136.4453,50.8396,136.4454,50.0049z"/>
</g>
</svg>
