<?xml version="1.0" encoding="utf-8"?>
<!-- Generator: Adobe Illustrator 19.0.1, SVG Export Plug-In . SVG Version: 6.00 Build 0)  -->
<svg version="1.1" id="Layer_1" xmlns="http://www.w3.org/2000/svg" xmlns:xlink="http://www.w3.org/1999/xlink" x="0px" y="0px"
	 viewBox="0 0 150 96" style="enable-background:new 0 0 150 96;" xml:space="preserve">
<style type="text/css">
	.st0{fill:#FFFFFF;}
</style>
<g>
	<g>
		<path class="st0" d="M32.4118,55.2684c1.1929,0.7959,1.7652,1.5605,1.7177,2.3057c-0.0478,0.6978-0.668,1.5052-1.8607,2.4012
			c-0.5249,0.4123-1.0021,0.6303-1.4791,0.7089c-0.6202,0.1022-1.1452-0.0436-1.6221-0.4724
			c-0.8113-0.743-1.3359-1.2593-1.5268-1.5508c-1.67,0.7504-3.5306,1.2754-5.6779,1.515
			c-8.779,0.9497-14.1229-4.1035-14.1229-12.3076C7.8398,39.552,13.136,34.699,21.9628,33.494
			c6.8706-0.96,11.4509,0.8076,13.7889,5.999c0.5251,1.6852,0.8111,3.3297,0.8112,4.8967
			C36.5628,48.4418,35.1789,52.1084,32.4118,55.2684z M25.1118,48.3491c0.0955-1.7007-0.0479-3.2299-0.3818-4.5944
			c-0.5248-2.0211-1.5268-2.9663-2.9104-2.8785c-1.4789,0.0991-2.3382,1.5063-2.5287,4.2476
			c-0.0478,0.5037-0.0477,0.9572-0.0477,1.3653c0,2.764,0.7158,4.7352,2.0993,5.8955c0.5247,0.4396,1.0495,0.514,1.6698,0.2997
			C24.2531,52.2101,24.9686,50.7855,25.1118,48.3491z"/>
		<path class="st0" d="M65.6208,36.4186c-0.0477,3.0431-0.6678,5.9729-1.9084,8.7403c-1.0023,2.3203-2.6238,4.2932-4.8667,5.9942
			c-1.9564,1.4802-4.1988,2.5529-6.6796,3.1933c-4.3418,1.1202-7.7775,0.4285-10.2107-1.9391
			c-2.2421-2.182-3.4353-5.4389-3.4829-9.7654c0-0.5694,0-1.1387,0-1.708c0.0002-0.3232,0-1.5694,0.0477-3.7499
			c0.0478-3.9353,1.3835-6.2185,3.96-6.997c0.8112-0.248,2.1949-0.6869,4.2465-1.2764c3.1014-0.8715,4.9142-1.1122,5.4394-0.5566
			c0.2387,0.2601,0.3814,1.0147,0.3339,2.2439c0,0.9818-0.0473,2.6322-0.1909,4.8692c-0.0953,2.0368-0.143,3.6858-0.143,4.9013
			c0.0471,3.5847,1.0021,5.1114,2.958,4.5772c0.2544-0.0697,0.5089-0.1397,0.7634-0.2099c1.7653-0.6746,2.6245-2.2835,2.6243-4.8697
			c-0.0159-4.0236-0.032-8.047-0.0479-12.0702c0.0003-1.2698,1.1451-2.2659,3.4831-2.9782c2.2902-0.6993,3.435-0.4418,3.4831,0.7275
			c0.0474,1.3576,0.0953,3.2357,0.1907,5.7149C65.6687,31.9555,65.6687,33.7069,65.6208,36.4186z"/>
		<path class="st0" d="M82.1294,40.6529c-0.048,1.8874-0.5246,3.3226-1.4315,4.3043c-0.7155,0.7347-2.0994,1.423-4.1032,2.1016
			c-0.4136,0.1203-0.827,0.2406-1.2406,0.361c-2.6238,0.7164-4.5322,0.747-5.7253,0.0017c-0.4773-0.2887-0.763-2.2467-0.8589-5.8726
			c0-2.104,0-4.2082,0-6.3122c0-2.3732-0.0475-4.6365-0.1431-6.7902c0.0476-2.1023,0.5724-3.7361,1.479-4.9224
			c1.0972-1.3882,3.1014-2.5441,5.9641-3.4476c0.2385-0.0749,1.0022-0.3161,2.2901-0.6735
			c2.6721-0.7934,4.0077-0.0067,3.9603,2.3624C82.2567,28.0623,82.1931,34.3581,82.1294,40.6529z"/>
		<path class="st0" d="M112.236,28.157c0.0003,0.3454-0.048,0.7004-0.0955,1.0556c-2.2427,6.5381-6.6322,10.4318-13.1687,12.0792
			c-9.1608,2.3262-14.6955-1.0169-14.6952-10.2143c0.0002-8.8204,5.3437-15.8003,14.1227-18.2936
			c3.2447-0.9075,6.1071-0.9263,8.5884-0.0155c3.1012,1.1028,4.8188,3.3011,5.2006,6.5209c0.143,1.0551-0.3341,1.8951-1.4313,2.5312
			c-0.5246,0.3134-1.4789,0.6723-2.9582,1.1654c-0.3341,0.1273-0.5248,0.1725-0.5725,0.1837
			c-0.9542,0.2258-1.5269-0.1247-1.67-1.0707c-0.4293-2.494-1.6698-3.3144-3.6738-2.4975
			c-1.4789,0.5832-2.2898,2.3651-2.5288,5.4023c-0.0478,0.8419-0.0954,1.4883-0.0954,1.8297
			c0.0004,4.4379,0.9539,6.4294,2.9104,5.9429c1.2407-0.3081,2.0992-0.9548,2.6242-1.914c0.3339-0.8643,0.6204-1.717,0.9543-2.6304
			c0.3338-0.9132,1.0023-1.4659,1.9562-1.6375c2.0514-0.4249,3.4354-0.4239,4.0556,0.0848
			C112.0927,27.0031,112.2364,27.5158,112.236,28.157z"/>
		<path class="st0" d="M124.2129,7.5082c2.481-0.3868,3.7216,0.7142,3.7215,3.2113c0,0.6001-0.0001,1.4997-0.0479,2.7559
			c-0.0474,1.2558-0.0474,2.1556-0.0475,2.7555c0.0001,0.7,0.1432,1.0317,0.4772,0.9414c0.3339-0.0404,0.6678-0.3295,1.0018-0.8182
			c1.5749-3.0326,2.6716-5.2965,3.2922-6.8626c0.7635-1.8798,1.8608-2.8372,3.2446-2.8885
			c0.9543-0.0363,1.9085-0.0617,2.8627-0.0757c1.1927,0.0926,1.8129,0.6316,1.8131,1.5403c0,1.4711-1.6699,4.8375-4.9622,10.2817
			c-0.2384,0.2675-0.1434,0.6127,0.2386,1.0919c2.9585,3.7939,4.8187,7.4227,5.5347,10.8021
			c0.095,0.4543,0.1435,0.9092,0.1431,1.3645c-0.0001,1.6715-0.859,2.5753-2.5764,2.7668
			c-1.0976,0.1279-2.2902,0.2733-3.5786,0.3921c-2.3379,0.2273-3.8172-0.4933-4.4373-2.1939
			c-0.2387-0.5301-0.62-1.4979-1.1449-2.8978c-0.9069-1.6614-1.527-2.4397-1.9086-2.3961
			c-0.2384,0.0276-0.3817,0.5445-0.3818,1.5936c0.0478,2.4936-0.1911,4.1194-0.7157,4.9299
			c-0.6206,0.9732-2.0515,1.6866-4.294,2.2561c-0.5885,0.0845-1.1769,0.1722-1.7654,0.263
			c-1.8607,0.2876-3.2923,0.388-4.3419,0.2293c-0.4293-0.1208-0.7635-0.2574-0.9543-0.4199
			c-0.7157-0.6101-1.0972-4.6366-1.0973-12.1959c-0.0002-8.1514,0.3818-12.7293,1.1451-13.6307
			c0.6201-0.9141,2.8628-1.797,6.632-2.445C122.7815,7.7377,123.4972,7.6205,124.2129,7.5082z"/>
	</g>
	<path class="st0" d="M47.8949,85.467c-2.1473,1.3453-5.7735,2.5418-10.8785,3.4171c-0.9065,0.1537-2.4811,0.3272-4.6758,0.4658
		c-2.9583,0.2014-4.7237-0.0591-5.2485-0.5886c-0.7157-0.6023-1.0972-4.3479-1.0973-11.2364
		c0.0003-6.8891,0.3817-10.7249,1.0973-11.5552c0.5248-0.5757,1.527-1.081,3.0536-1.5505c2.3379-0.6893,4.628-1.283,6.8706-1.7197
		c6.4888-1.2774,10.8308-1.3968,13.0255,0.0851c1.3837,0.921,2.0517,2.53,2.0516,4.868c0.0001,2.1028-0.9543,4.0233-2.8628,5.7261
		c2.2426,0.9695,3.3398,2.5727,3.3399,4.819C52.5703,81.0484,50.996,83.5347,47.8949,85.467z M40.0223,68.796
		c-0.6681,0.4588-1.002,1.1241-1.002,2.0018c0,0.8311,0.2386,1.3853,0.7157,1.6608c0.3338,0.1646,1.145,0.1442,2.5288-0.1438
		c1.3839-0.2886,2.3855-0.8796,3.0058-1.7137c0.1909-0.3209,0.2867-0.714,0.2864-1.1787c0.0001-1.3961-1.0973-1.8386-3.2445-1.3797
		C41.2149,68.2759,40.4516,68.524,40.0223,68.796z M40.4518,82.0277c0.3816,0.0651,1.2406-0.0068,2.5764-0.2774
		c1.3838-0.2809,2.2901-0.8925,2.7673-1.8779c0.1431-0.3096,0.2387-0.7021,0.2386-1.167c0.0001-1.35-1.0498-1.8581-3.1015-1.5248
		c-1.1929,0.2002-2.0515,0.4621-2.5764,0.796c-0.7154,0.4632-1.0498,1.2652-1.0496,2.3278
		C39.3067,81.2743,39.6885,81.8502,40.4518,82.0277z"/>
	<path class="st0" d="M67.9823,77.1735c-0.0479,1.8623-0.5246,3.268-1.4314,4.2125c-0.7161,0.7057-2.0993,1.3468-4.1033,1.947
		c-0.4136,0.1043-0.8271,0.2082-1.2405,0.3117c-2.6243,0.6094-4.5328,0.5513-5.7254-0.2412
		c-0.4771-0.3079-0.7635-2.2547-0.8589-5.8392c0-2.0772,0-4.1544,0-6.2316c0.0002-2.3426-0.0478-4.5797-0.1431-6.7105
		c0.0477-2.0733,0.5724-3.6598,1.4792-4.7888c1.0971-1.3198,3.1015-2.3692,5.964-3.159c0.239-0.0659,1.0017-0.276,2.2902-0.5882
		c2.672-0.7007,4.0078,0.1034,3.9602,2.4428C68.1096,64.7449,68.0459,70.9597,67.9823,77.1735z"/>
	<path class="st0" d="M74.7099,60.1681c-0.6998,0.2435-1.3996,0.4871-2.0995,0.7303c-1.6699,0.6091-2.4812-0.3539-2.4809-2.8717
		c0.0003-1.9476,1.3833-3.3852,4.151-4.4159c4.342-1.5743,8.922-3.0351,13.6935-4.2498c3.3401-0.8698,5.8209-1.1821,7.3954-0.9556
		c0.9067,0.1066,1.3835,0.7653,1.3836,1.8844c-0.0002,2.0929-0.4768,3.5246-1.479,4.3117c-0.3815,0.291-1.0018,0.5447-1.9086,0.7777
		c-0.5247,0.1344-1.6224,0.3225-2.0039,0.4227c-1.3359,0.3019-2.004,1.206-2.004,2.6073
		c-0.0317,4.3914-0.0636,8.7824-0.0954,13.1731c0.0002,1.934-0.4772,3.3579-1.4791,4.2856
		c-0.7633,0.7231-2.1473,1.3609-4.1032,1.9591c-0.3977,0.1021-0.7952,0.2044-1.1928,0.3069
		c-2.7197,0.654-4.6282,0.6273-5.7255-0.1837c-0.3817-0.2819-0.6202-1.2223-0.7157-2.7734
		c-0.143-1.921-0.0479-6.5778,0.2385-14.0158C76.3322,60.144,75.8072,59.8131,74.7099,60.1681z"/>
	<g>
		<path class="st0" d="M127.397,62.9989c-2.1329-2.5148-0.545,1.1549-10.088,3.2053c-4.6951,1.071-7.5072-2.5388-7.988-6.8087
			c-0.0944-1.0267,16.0518-5.0756,16.5766-5.1023c1.0975-0.514,1.5951-1.9032,1.4515-2.9894
			c-0.3815-3.3071-2.0995-5.7468-5.2006-7.2104c-2.4813-1.1984-5.3441-1.4806-8.5883-0.8687
			c-8.7788,1.7012-14.1229,8.4635-14.1229,17.3932c0.0001,9.3347,5.5577,12.36,14.6954,11.549
			C122.3771,71.4469,129.3172,65.3591,127.397,62.9989z M114.5257,47.3503c1.5373-0.2777,2.7833,0.9611,2.7834,2.7401
			c0,1.7796-1.246,3.4174-2.7834,3.6848c-1.537,0.2669-2.7834-0.9308-2.7833-2.7002
			C111.7423,49.3064,112.9885,47.6274,114.5257,47.3503z"/>
	</g>
	<path class="st0" d="M133.0379,56.8647c-0.0001-1.0815-0.833-1.9148-1.8603-1.8446c-1.0273,0.0697-1.8603,1.0127-1.8603,2.0901
		c0.0001,1.0776,0.833,1.8852,1.8603,1.8194C132.2052,58.8635,133.038,57.9463,133.0379,56.8647z"/>
	<path class="st0" d="M124.6037,59.0011c-0.0001-0.7956-0.617-1.3724-1.3785-1.2808c-0.7613,0.0915-1.3779,0.8151-1.3784,1.6082
		c0.0004,0.7934,0.617,1.3582,1.3784,1.2689C123.9867,60.5079,124.6034,59.7966,124.6037,59.0011z"/>
	<path class="st0" d="M133.798,49.6808c-0.0002-0.7842-0.6033-1.3881-1.348-1.3402c-0.7443,0.0478-1.3483,0.7274-1.348,1.5093
		c0.0001,0.7823,0.6036,1.372,1.348,1.3266C133.1944,51.1307,133.7978,50.4651,133.798,49.6808z"/>
</g>
</svg>
